<?xml version="1.0" encoding="UTF-8"?>
<svg xmlns="http://www.w3.org/2000/svg" viewBox="0 0 1920 1920">
  <defs>
    <style>
      .cls-1 {
        font-size: 146.12px;
      }

      .cls-1, .cls-2 {
        font-family: EthnocentricRg-Regular, Ethnocentric;
      }

      .cls-1, .cls-3 {
        fill: #3c3c3c;
      }

      .cls-2 {
        fill: #fff;
        font-size: 144.22px;
      }

      .cls-4 {
        fill: #29abe2;
      }
    </style>
  </defs>
  <g id="Calque_1" data-name="Calque 1">
    <rect class="cls-4" x="457.99" y="937.42" width="415.69" height="161.29" rx="12" ry="12"/>
    <text class="cls-2" transform="translate(521.26 1059.85) scale(.88 1)"><tspan x="0" y="0">PHI</tspan></text>
    <text class="cls-1" transform="translate(928.33 1058.94) scale(.77 1)"><tspan x="0" y="0">BRAIN</tspan></text>
  </g>
  <g id="Calque_16" data-name="Calque 16">
    <path class="cls-3" d="m906.59,690.96c7.96,67.88,9.72,136.34,10,204.61-.24,68.27-1.99,136.74-10,204.61-8.01-67.88-9.76-136.35-10-204.61.28-68.27,2.03-136.73,10-204.61h0Z"/>
    <path class="cls-4" d="m837.33,376.45c-25.27-3.23-45.61,2.83-60.71,10.98v144.9l31.14,31.14v95.39c6.99,1.68,12.18,7.98,12.18,15.48,0,8.81-7.13,15.94-15.94,15.94s-15.93-7.13-15.93-15.94c0-7.22,4.79-13.31,11.38-15.27v-92.17l-22.82-22.83-8.32-8.32v-143.33c-10.36,6.91-17.36,14.22-20.86,18.29v48.28l-8.32,9.11-21.84,21.84v94.02c6.99,1.68,12.18,7.98,12.18,15.48,0,8.81-7.13,15.94-15.94,15.94s-15.93-7.13-15.93-15.94c0-7.22,4.79-13.31,11.38-15.27v-97.69l30.16-30.16v-40.45c-81.54,28.5-80.35,86.71-80.35,86.71,0,0-93.51,96.21-16.49,189.88,0,0-6,54.11,27.16,102.54v-84.93l25.94-25.94c-1.25-2.3-1.96-4.94-1.96-7.75,0-8.93,7.13-16.17,15.93-16.17s15.94,7.24,15.94,16.17-7.13,16.17-15.94,16.17c-3.04,0-5.87-.86-8.28-2.36l-23.32,23.32v92.47c17.25,20.65,42.67,39.33,80.03,51.04,9.51,12.8,19.43,21.98,29.3,28.46,1.5-4.84,5.48-8.6,10.5-9.93v-80.69l-28.32-28.33-8.32-8.32v-95.68l-14.08-14.08c-2.43,1.52-5.31,2.39-8.4,2.39-8.8,0-15.93-7.15-15.93-15.99s7.13-15.99,15.93-15.99,15.94,7.17,15.94,15.99c0,2.72-.68,5.28-1.87,7.52l8.41,8.41,8.32,8.32v95.68l36.64,36.64v84.23c6.26,1.8,10.84,7.44,10.84,14.12,0,2.78-.79,5.38-2.16,7.59,32.44,7.45,58.73-7.6,58.73-7.6,0,0,1.12-129.21-1.41-169.24-.33-5.14-.72-8.81-1.18-10.54.7-1.23,1.26-4.1,1.71-8.29.3-2.77.55-6.11.76-9.95l-29.32-29.32v-65.15c-4.82-1.5-8.31-5.89-8.31-11.06,0-6.42,5.36-11.62,11.95-11.62s11.95,5.2,11.95,11.62c0,5.18-3.48,9.57-8.31,11.06v62.14l22.44,22.44c1.83-58.69-2.87-186.64-2.87-186.64,0,0,26.9-111.06-33.39-118.78Z"/>
    <g>
      <path class="cls-4" d="m1024.04,857.06c129.27-40.51,115.52-164.57,115.52-164.57,77.01-93.68-16.5-189.89-16.5-189.89,0,0,1.25-60.88-86.04-88.61,0,0-32.22-45.27-92.51-37.54-60.3,7.73-33.39,118.78-33.39,118.78,0,0-7.41,201.56,0,214.77-4.02,15.28-2.58,179.79-2.58,179.79,0,0,64.01,36.64,115.52-32.74Z"/>
      <path class="cls-3" d="m1024.04,857.06c33.18-12.74,63.88-34.18,82.53-64.85,13.95-22.21,20.11-47.79,23.58-73.41,1.02-9.69,1.14-19.51.15-29.19,6.05-7.22,11.68-14.92,16.23-23.06,30.08-52.15,9.1-112.85-27.99-155.55-.44-.56-1.46-1.58-1.93-2.11,0,.04-2.59-6.65-2.55-6.42-.42-9.45-3.52-18.63-7.87-27.03-14.84-28.24-44.84-44.71-74.62-53.73-16.9-22.95-44.97-37.39-73.53-37.14-19.71.02-31.45,4.22-38.83,23.9-3,8.26-4.39,17.61-4.88,27.08-.81,16.74.97,34.02,4.06,50.59.49,2.63,1.15,5.72,1.75,8.21-.66,18.27-1.22,36.58-1.72,54.87-1.07,44.58-2.33,89.3-1.15,133.84.37,7.69.41,15.5,1.9,22.93.03.19.17.36-.22-.4,0,0,.86,6.7.86,6.7-.55,3.06-.71,6.24-.93,9.43-1.36,25.99-1.35,52.1-1.55,78.17,0,12.56-.18,32.39.18,44.91-.08,13.5-1.23,31.39-1.7,44.93,0,0-3.67-6.26-3.67-6.26.07.06.38.25.61.38,0,0,.76.44.76.44,41.23,21.49,81.83,7.28,110.53-27.23h0Zm0,0c-25.97,41.28-70.53,59.23-116.86,40.13-1.29-.5-4.35-2.17-5.69-2.87,0,0-.25-4.47-.25-4.47-.69-13.66-2.04-31.65-2.16-45.01.09-7.5.24-15.01.19-22.51.12-29.81.07-60.53,1.1-90.26.44-8.09.36-16.33,2.03-24.36,0,0,.86,6.7.86,6.7-1.86-3.67-2.02-6.21-2.58-9.79-.86-7.03-1.13-14-1.39-20.95-1.2-45.04.07-89.96,1.14-134.94.49-17.95,1.04-35.86,1.68-53.83,0,0,.25,2.45.25,2.45-.73-2.86-1.07-5.13-1.65-7.85-5.28-29.91-8.79-66.94,5.05-95.18,11.32-21.6,28.79-27.86,52.25-27.76,31.76-.31,62.93,14.61,83.51,38.64.89,1.09,2.04,2.45,2.83,3.57,0,0-4.61-3.36-4.61-3.36,22,7.01,43.31,17.46,60.52,33.39,17.46,16.14,30.64,38.87,31.79,63.11,0,0,0,.87,0,.87l-2.54-6.46s1.31,1.4,1.31,1.4c37.44,41.96,61.31,103.44,40.26,158.56-5.67,15.24-14.31,29.42-24.57,41.92,0,0,1.99-6.71,1.99-6.71l.1,1.09.07.96s.12,1.87.12,1.87c.43,8.42.08,16.84-.72,25.2-.95,9.48-2.15,19.03-5.03,28.19-2.82,9.15-6.43,18.06-10.77,26.56-21.21,42.82-62.44,71.18-108.23,81.7h0Z"/>
    </g>
    <g>
      <path class="cls-3" d="m1014.05,552.47c-4.72-3-9.18-6.04-13.7-9.18-.51-.39-.69-.98-.92-1.54-7.06-11.64-15.81-22.71-25.61-32.03-6.75-6.38-14.25-11.98-22.47-16.18-4.07-2.01-8.27-3.65-12.56-4.89-3.73-3.26-7.92-6.33-12.76-9.6,5.2-2.7,10.93-4.19,16.76-4.86,5.31,1.52,10.44,3.54,15.32,5.96,18.95,9.67,34.23,25.36,46.54,42.34,2.51,3.41,5.28,7.79,7.62,11.29.43.49.91.96,1.04,1.64.87,5.64,1.32,11.3.74,17.06h0Z"/>
      <path class="cls-3" d="m970.04,496.77c1.9-4.34,3.91-8.35,6.04-12.39.27-.46.75-.58,1.2-.75.45-.17.81-.48,1.21-.73,11.43-7.7,22.4-16.66,30.29-27.87,1.96-2.89,3.64-5.88,4.9-8.91,1.28-3.04,2.06-6.13,2.28-9.17.3-.36.67-.73.92-1.11,2.34-3.13,3.87-6.13,5.41-9.96,3.91,2.96,6.82,7.31,8.61,12.28-.36,4.8-1.58,9.43-3.35,13.64-6.71,15.93-19.79,28.14-33.2,38.26-2.86,2.18-5.89,4.12-8.8,6.21-.37.37-.72.78-1.28.86-4.79.42-9.42.47-14.24-.36h0Z"/>
      <path class="cls-3" d="m985.3,567.55c4.71,3.01,9.16,6.07,13.67,9.22.51.39.69.98.92,1.55,7.02,11.67,15.73,22.76,25.49,32.1,6.73,6.4,14.21,12.03,22.41,16.25,4.06,2.02,8.25,3.68,12.54,4.93,3.72,3.27,7.9,6.35,12.73,9.64-5.2,2.68-10.94,4.16-16.77,4.81-5.31-1.54-10.42-3.57-15.3-6-18.92-9.73-34.15-25.46-46.39-42.48-2.49-3.41-5.25-7.8-7.58-11.31-.43-.5-.91-.96-1.04-1.65-.85-5.64-1.28-11.3-.68-17.05h0Z"/>
    </g>
    <g>
      <path class="cls-3" d="m1060.84,807.26c-4.72-3-9.18-6.04-13.7-9.18-.51-.39-.69-.98-.92-1.54-7.06-11.64-15.81-22.71-25.61-32.03-6.75-6.38-14.25-11.98-22.47-16.18-4.07-2.01-8.27-3.65-12.56-4.89-3.73-3.26-7.92-6.33-12.76-9.6,5.2-2.7,10.93-4.19,16.76-4.86,5.31,1.52,10.44,3.54,15.32,5.96,18.95,9.67,34.23,25.36,46.54,42.34,2.51,3.41,5.28,7.79,7.62,11.29.43.49.91.96,1.04,1.64.87,5.63,1.32,11.3.74,17.05h0Z"/>
      <path class="cls-3" d="m1016.84,751.56c1.9-4.34,3.91-8.35,6.04-12.39.27-.46.75-.58,1.2-.75.45-.17.81-.48,1.21-.73,11.43-7.7,22.4-16.66,30.29-27.87,1.96-2.89,3.64-5.88,4.9-8.91,1.28-3.03,2.06-6.13,2.28-9.17.3-.36.67-.73.92-1.11,2.34-3.13,3.87-6.13,5.41-9.96,3.91,2.96,6.82,7.31,8.61,12.28-.36,4.8-1.58,9.43-3.35,13.64-6.71,15.93-19.79,28.14-33.2,38.26-2.86,2.18-5.89,4.12-8.8,6.21-.37.37-.72.78-1.28.86-4.79.42-9.42.47-14.25-.36h0Z"/>
      <path class="cls-3" d="m928.22,853.77c3.54-4.33,7.09-8.4,10.74-12.51.45-.46,1.06-.57,1.64-.73,12.4-5.62,24.43-12.99,34.84-21.6,7.14-5.94,13.59-12.72,18.74-20.38,2.48-3.8,4.61-7.77,6.35-11.88,3.68-3.32,7.22-7.11,11.05-11.53,2.06,5.48,2.87,11.35,2.83,17.21-2.14,5.09-4.75,9.94-7.73,14.5-11.86,17.66-29.25,30.97-47.57,41.16-3.68,2.08-8.36,4.31-12.11,6.22-.54.37-1.06.79-1.76.84-5.7.19-11.37-.03-17.02-1.3h0Z"/>
    </g>
    <path class="cls-3" d="m1029.11,623.38c-1.92,4.33-3.94,8.34-6.08,12.38-.27.46-.75.58-1.2.74-.45.17-.81.48-1.21.73-11.46,7.66-22.45,16.59-30.39,27.78-1.97,2.88-3.66,5.87-4.93,8.9-1.3,3.03-2.08,6.12-2.32,9.16-.3.36-.67.73-.93,1.11-2.35,3.12-3.89,6.12-5.45,9.94-3.9-2.98-6.79-7.33-8.57-12.31.38-4.8,1.62-9.43,3.4-13.63,6.77-15.91,19.89-28.07,33.33-38.16,2.87-2.17,5.9-4.11,8.82-6.18.37-.37.72-.78,1.28-.86,4.79-.4,9.43-.44,14.25.4h0Z"/>
    <path class="cls-3" d="m1110.23,526.66c-1.92,4.33-3.94,8.34-6.08,12.38-.27.46-.75.58-1.2.74-.45.17-.81.48-1.21.73-11.46,7.66-22.45,16.59-30.39,27.78-1.97,2.88-3.66,5.87-4.93,8.9-1.3,3.03-2.08,6.12-2.32,9.16-.3.36-.67.73-.93,1.11-2.35,3.12-3.89,6.12-5.45,9.94-3.9-2.98-6.79-7.33-8.57-12.31.38-4.8,1.62-9.43,3.4-13.63,6.77-15.91,19.89-28.07,33.33-38.16,2.87-2.17,5.9-4.11,8.82-6.18.37-.37.72-.78,1.28-.86,4.79-.4,9.43-.44,14.25.4h0Z"/>
    <polygon class="cls-3" points="747.44 459.01 747.44 459.79 739.12 468.12 747.44 459.01"/>
  </g>
</svg>