<svg xmlns="http://www.w3.org/2000/svg" viewBox="600 370 540 540" aria-hidden="true">
  <g>
    <path fill="#3C3C3C" d="m906.59,690.96c7.96,67.88,9.72,136.34,10,204.61-.24,68.27-1.99,136.74-10,204.61-8.01-67.88-9.76-136.35-10-204.61.28-68.27,2.03-136.73,10-204.61h0Z"/>
    <path fill="#29ABE2" d="m837.33,376.45c-25.27-3.23-45.61,2.83-60.71,10.98v144.9l31.14,31.14v95.39c6.99,1.68,12.18,7.98,12.18,15.48,0,8.81-7.13,15.94-15.94,15.94s-15.93-7.13-15.93-15.94c0-7.22,4.79-13.31,11.38-15.27v-92.17l-22.82-22.83-8.32-8.32v-143.33c-10.36,6.91-17.36,14.22-20.86,18.29v48.28l-8.32,9.11-21.84,21.84v94.02c6.99,1.68,12.18,7.98,12.18,15.48,0,8.81-7.13,15.94-15.94,15.94s-15.93-7.13-15.93-15.94c0-7.22,4.79-13.31,11.38-15.27v-97.69l30.16-30.16v-40.45c-81.54,28.5-80.35,86.71-80.35,86.71,0,0-93.51,96.21-16.49,189.88,0,0-6,54.11,27.16,102.54v-84.93l25.94-25.94c-1.25-2.3-1.96-4.94-1.96-7.75,0-8.93,7.13-16.17,15.93-16.17s15.94,7.24,15.94,16.17-7.13,16.17-15.94,16.17c-3.04,0-5.87-.86-8.28-2.36l-23.32,23.32v92.47c17.25,20.65,42.67,39.33,80.03,51.04,9.51,12.8,19.43,21.98,29.3,28.46,1.5-4.84,5.48-8.6,10.5-9.93v-80.69l-28.32-28.33-8.32-8.32v-95.68l-14.08-14.08c-2.43,1.52-5.31,2.39-8.4,2.39-8.8,0-15.93-7.15-15.93-15.99s7.13-15.99,15.93-15.99,15.94,7.17,15.94,15.99c0,2.72-.68,5.28-1.87,7.52l8.41,8.41,8.32,8.32v95.68l36.64,36.64v84.23c6.26,1.8,10.84,7.44,10.84,14.12,0,2.78-.79,5.38-2.16,7.59,32.44,7.45,58.73-7.6,58.73-7.6,0,0,1.12-129.21-1.41-169.24-.33-5.14-.72-8.81-1.18-10.54.7-1.23,1.26-4.1,1.71-8.29.3-2.77.55-6.11.76-9.95l-29.32-29.32v-65.15c-4.82-1.5-8.31-5.89-8.31-11.06,0-6.42,5.36-11.62,11.95-11.62s11.95,5.2,11.95,11.62c0,5.18-3.48,9.57-8.31,11.06v62.14l22.44,22.44c1.83-58.69-2.87-186.64-2.87-186.64,0,0,26.9-111.06-33.39-118.78Z"/>
    <path fill="#29ABE2" d="m1024.04,857.06c129.27-40.51,115.52-164.57,115.52-164.57,77.01-93.68-16.5-189.89-16.5-189.89,0,0,1.25-60.88-86.04-88.61,0,0-32.22-45.27-92.51-37.54-60.3,7.73-33.39,118.78-33.39,118.78,0,0-7.41,201.56,0,214.77-4.02,15.28-2.58,179.79-2.58,179.79,0,0,64.01,36.64,115.52-32.74Z"/>
  </g>
</svg>
